<?xml version="1.0" encoding="UTF-8"?>
<svg version="1.1" xmlns="http://www.w3.org/2000/svg"
  width="480" height="480" viewBox="0 0 480 480">
  <!-- White background -->
  <rect width="480" height="480" fill="#ffffff"/>
  <!-- Black letter paths -->
  <g transform="translate(0,480) scale(0.1,-0.1)" fill="#000000" stroke="none">
    <path d="M722 2811 c-130 -38 -192 -97 -238 -231 -23 -65 -28 -99 -35 -260 -4
-102 -8 -274 -8 -382 l-1 -198 165 0 165 0 0 140 0 140 33 1 c17 1 40 1 50 0
15 -2 17 11 17 143 l0 146 -50 0 -50 0 0 75 c0 103 23 145 78 145 10 0 30 -11
45 -25 l27 -26 130 92 c71 51 130 95 130 98 0 12 -85 88 -122 109 -94 53 -221
66 -336 33z"/>
    <path d="M1660 2458 c0 -195 5 -382 10 -417 20 -122 88 -209 208 -268 45 -22
73 -28 149 -31 l93 -4 0 151 c0 140 -1 151 -19 151 -44 0 -82 23 -101 61 -19
36 -20 60 -20 374 l0 335 -160 0 -160 0 0 -352z"/>
    <path d="M3480 2805 c0 -3 59 -122 130 -264 72 -143 130 -264 130 -269 0 -6
-43 -95 -96 -199 -52 -103 -110 -221 -129 -260 l-34 -73 160 0 c143 0 160 2
166 18 3 9 17 42 31 72 13 30 36 79 49 109 13 29 27 51 30 47 4 -4 30 -59 58
-124 l51 -117 162 -3 c89 -1 162 0 162 3 0 3 -58 120 -130 260 -71 139 -130
259 -130 266 0 7 59 129 130 271 72 141 130 259 130 262 0 3 -71 6 -159 6
l-158 0 -54 -121 c-30 -67 -59 -121 -64 -121 -9 0 -80 146 -104 215 l-10 27
-160 0 c-89 0 -161 -2 -161 -5z"/>
    <path d="M2943 2510 c-54 -13 -123 -60 -156 -107 -62 -86 -79 -151 -88 -333
-4 -91 -8 -202 -8 -247 l-1 -83 145 0 145 0 0 213 c0 195 2 215 18 230 24 22
55 21 75 -1 15 -16 17 -47 17 -230 l0 -212 146 0 145 0 -3 253 -3 253 -38 76
c-44 91 -104 148 -183 178 -56 21 -148 25 -211 10z"/>
    <path d="M2250 2120 l0 -380 140 0 140 0 0 380 0 380 -140 0 -140 0 0 -380z"/>
    <path d="M1200 2125 l0 -105 160 0 160 0 0 105 0 105 -160 0 -160 0 0 -105z"/>
  </g>
  <!-- Yellow wifi icon paths -->
  <g transform="translate(0,480) scale(0.1,-0.1)" fill="#f0d000" stroke="none">
    <path d="M2293 3045 c-66 -28 -31 -48 84 -47 66 0 82 -4 143 -35 89 -45 159
-120 192 -205 23 -61 48 -83 68 -61 14 14 -28 122 -70 177 -68 93 -146 146
-250 170 -80 19 -125 19 -167 1z"/>
    <path d="M2335 2920 c-32 -4 -41 -10 -43 -27 -2 -13 0 -23 5 -24 4 0 35 -2 68
-4 79 -4 86 -6 131 -40 54 -41 71 -62 93 -120 13 -35 24 -50 37 -50 16 0 19 7
17 41 -5 128 -163 243 -308 224z"/>
    <path d="M2320 2775 c-18 -22 1 -39 44 -41 46 -1 83 -27 101 -70 10 -25 20
-35 32 -32 48 9 8 108 -57 140 -43 22 -103 23 -120 3z"/>
    <path d="M2347 2653 c-12 -12 -7 -41 8 -47 8 -3 15 -1 15 5 0 6 4 8 9 5 4 -3
6 6 3 19 -4 24 -21 33 -35 18z"/>
  </g>
</svg>
